<svg width="100%" style="" viewBox="0 0 128 128" fill="currentColor" xmlns="http://www.w3.org/2000/svg">
<path d="M85.9775 33.6411L85.9825 33.6512L85.9877 33.6613C86.6204 34.9034 87.1608 36.8113 87.4843 39.5449C87.7975 42.1908 90.014 44.3852 92.8688 44.3852C95.9797 44.3852 98.4372 41.7456 98.2152 38.6426L97.0025 21.6965C96.7779 18.557 94.1654 16.1248 91.0178 16.1248H34.3155C31 16.1248 28.313 18.8138 28.3155 22.1292L28.3156 22.359C28.3166 23.6964 28.7644 24.9952 29.5879 26.049L58.2461 62.7224L29.396 96.7689C28.699 97.5915 28.3164 98.6348 28.3164 99.713C28.3164 102.228 30.3553 104.267 32.8704 104.267H92.7983C95.7873 104.267 98.3205 102.067 98.7391 99.1074L101.458 79.8853C101.879 76.9097 99.7716 74.1696 96.7876 73.8129C94.0842 73.4897 91.717 75.2222 90.9557 77.6226C89.6197 81.8353 87.9359 84.066 86.2761 85.0754C84.0416 86.4342 80.4718 87.2935 75.2093 87.2935H54.6603L76.5266 61.4736C78.4551 59.1963 78.417 55.8478 76.437 53.6151L54.8585 29.2819H75.5045C79.4056 29.2819 81.7397 29.7615 82.9307 30.3696L82.9309 30.3697C84.129 30.9814 85.159 32.004 85.9775 33.6411Z" fill="currentColor" stroke="white" stroke-width="6"/>
</svg>