<svg width="520" height="116" viewBox="0 0 520 116" fill="none" xmlns="http://www.w3.org/2000/svg">
<path d="M54.6642 31.4451L54.6693 31.4553L54.6744 31.4654C55.3072 32.7075 55.8476 34.6153 56.1711 37.349C56.4842 39.9949 58.7007 42.1893 61.5556 42.1893C64.6665 42.1893 67.124 39.5497 66.9019 36.4467L65.6893 19.5006C65.4646 16.3611 62.8521 13.9288 59.7046 13.9288H3.00224C-0.313216 13.9288 -3.00023 16.6178 -2.99776 19.9333L-2.99759 20.1631C-2.99659 21.5005 -2.54879 22.7992 -1.7253 23.853L26.9328 60.5265L-1.91718 94.573C-2.61424 95.3956 -2.99682 96.4389 -2.99682 97.5171C-2.99682 100.032 -0.957911 102.071 1.55721 102.071H61.485C64.4741 102.071 67.0072 99.8711 67.4259 96.9115L70.145 77.6894C70.5659 74.7138 68.4583 71.9737 65.4744 71.617C62.771 71.2938 60.4037 73.0263 59.6425 75.4267C58.3064 79.6394 56.6226 81.8701 54.9628 82.8795C52.7283 84.2383 49.1586 85.0976 43.8961 85.0976H23.3471L45.2133 59.2777C47.1419 57.0004 47.1037 53.6519 45.1238 51.4192L23.5453 27.086H44.1912C48.0924 27.086 50.4264 27.5656 51.6175 28.1737L51.6176 28.1738C52.8157 28.7854 53.8458 29.808 54.6642 31.4451Z" fill="black" stroke="white" stroke-width="6"/>
<path d="M54.6642 31.4451L54.6693 31.4553L54.6744 31.4654C55.3072 32.7075 55.8476 34.6153 56.1711 37.349C56.4842 39.9949 58.7007 42.1893 61.5556 42.1893C64.6665 42.1893 67.124 39.5497 66.9019 36.4467L65.6893 19.5006C65.4646 16.3611 62.8521 13.9288 59.7046 13.9288H3.00224C-0.313216 13.9288 -3.00023 16.6178 -2.99776 19.9333L-2.99759 20.1631C-2.99659 21.5005 -2.54879 22.7992 -1.7253 23.853L26.9328 60.5265L-1.91718 94.573C-2.61424 95.3956 -2.99682 96.4389 -2.99682 97.5171C-2.99682 100.032 -0.957911 102.071 1.55721 102.071H61.485C64.4741 102.071 67.0072 99.8711 67.4259 96.9115L70.145 77.6894C70.5659 74.7138 68.4583 71.9737 65.4744 71.617C62.771 71.2938 60.4037 73.0263 59.6425 75.4267C58.3064 79.6394 56.6226 81.8701 54.9628 82.8795C52.7283 84.2383 49.1586 85.0976 43.8961 85.0976H23.3471L45.2133 59.2777C47.1419 57.0004 47.1037 53.6519 45.1238 51.4192L23.5453 27.086H44.1912C48.0924 27.086 50.4264 27.5656 51.6175 28.1737L51.6176 28.1738C52.8157 28.7854 53.8458 29.808 54.6642 31.4451Z" fill="#1E1E1E" stroke="white" stroke-width="6"/>
<path d="M177.668 46.7386H164.918C164.554 44.6477 163.884 42.7955 162.906 41.1818C161.929 39.5455 160.713 38.1591 159.259 37.0227C157.804 35.8864 156.145 35.0341 154.281 34.4659C152.44 33.875 150.452 33.5795 148.315 33.5795C144.52 33.5795 141.156 34.5341 138.224 36.4432C135.293 38.3295 132.997 41.1023 131.338 44.7614C129.679 48.3977 128.849 52.8409 128.849 58.0909C128.849 63.4318 129.679 67.9318 131.338 71.5909C133.02 75.2273 135.315 77.9773 138.224 79.8409C141.156 81.6818 144.509 82.6023 148.281 82.6023C150.372 82.6023 152.327 82.3295 154.145 81.7841C155.986 81.2159 157.634 80.3864 159.088 79.2955C160.565 78.2045 161.804 76.8636 162.804 75.2727C163.827 73.6818 164.531 71.8636 164.918 69.8182L177.668 69.8864C177.19 73.2045 176.156 76.3182 174.565 79.2273C172.997 82.1364 170.94 84.7045 168.395 86.9318C165.849 89.1364 162.872 90.8636 159.463 92.1136C156.054 93.3409 152.27 93.9545 148.111 93.9545C141.974 93.9545 136.497 92.5341 131.679 89.6932C126.861 86.8523 123.065 82.75 120.293 77.3864C117.52 72.0227 116.134 65.5909 116.134 58.0909C116.134 50.5682 117.531 44.1364 120.327 38.7955C123.122 33.4318 126.929 29.3295 131.747 26.4886C136.565 23.6477 142.02 22.2273 148.111 22.2273C151.997 22.2273 155.611 22.7727 158.952 23.8636C162.293 24.9545 165.27 26.5568 167.884 28.6705C170.497 30.7614 172.645 33.3295 174.327 36.375C176.031 39.3977 177.145 42.8523 177.668 46.7386ZM199.933 94.0568C196.615 94.0568 193.626 93.4659 190.967 92.2841C188.33 91.0795 186.24 89.3068 184.694 86.9659C183.171 84.625 182.41 81.7386 182.41 78.3068C182.41 75.3523 182.955 72.9091 184.046 70.9773C185.137 69.0455 186.626 67.5 188.512 66.3409C190.399 65.1818 192.524 64.3068 194.887 63.7159C197.274 63.1023 199.74 62.6591 202.285 62.3864C205.353 62.0682 207.842 61.7841 209.751 61.5341C211.66 61.2614 213.046 60.8523 213.91 60.3068C214.796 59.7386 215.24 58.8636 215.24 57.6818V57.4773C215.24 54.9091 214.478 52.9205 212.955 51.5114C211.433 50.1023 209.24 49.3977 206.376 49.3977C203.353 49.3977 200.955 50.0568 199.183 51.375C197.433 52.6932 196.251 54.25 195.637 56.0455L184.115 54.4091C185.024 51.2273 186.524 48.5682 188.615 46.4318C190.705 44.2727 193.262 42.6591 196.285 41.5909C199.308 40.5 202.649 39.9545 206.308 39.9545C208.83 39.9545 211.342 40.25 213.842 40.8409C216.342 41.4318 218.626 42.4091 220.694 43.7727C222.762 45.1136 224.421 46.9432 225.671 49.2614C226.944 51.5795 227.58 54.4773 227.58 57.9545V93H215.717V85.8068H215.308C214.558 87.2614 213.501 88.625 212.137 89.8977C210.796 91.1477 209.103 92.1591 207.058 92.9318C205.035 93.6818 202.66 94.0568 199.933 94.0568ZM203.137 84.9886C205.615 84.9886 207.762 84.5 209.58 83.5227C211.399 82.5227 212.796 81.2045 213.774 79.5682C214.774 77.9318 215.274 76.1477 215.274 74.2159V68.0455C214.887 68.3636 214.228 68.6591 213.296 68.9318C212.387 69.2045 211.365 69.4432 210.228 69.6477C209.092 69.8523 207.967 70.0341 206.853 70.1932C205.74 70.3523 204.774 70.4886 203.955 70.6023C202.115 70.8523 200.467 71.2614 199.012 71.8295C197.558 72.3977 196.41 73.1932 195.569 74.2159C194.728 75.2159 194.308 76.5114 194.308 78.1023C194.308 80.375 195.137 82.0909 196.796 83.25C198.455 84.4091 200.569 84.9886 203.137 84.9886ZM248.49 23.1818V93H236.15V23.1818H248.49ZM280.182 94.0227C274.954 94.0227 270.466 92.875 266.716 90.5795C262.989 88.2841 260.114 85.1136 258.091 81.0682C256.091 77 255.091 72.3182 255.091 67.0227C255.091 61.7045 256.114 57.0114 258.159 52.9432C260.204 48.8523 263.091 45.6705 266.818 43.3977C270.568 41.1023 275 39.9545 280.114 39.9545C284.364 39.9545 288.125 40.7386 291.398 42.3068C294.693 43.8523 297.318 46.0455 299.273 48.8864C301.227 51.7045 302.341 55 302.614 58.7727H290.818C290.341 56.25 289.204 54.1477 287.409 52.4659C285.636 50.7614 283.261 49.9091 280.284 49.9091C277.761 49.9091 275.545 50.5909 273.636 51.9545C271.727 53.2955 270.239 55.2273 269.17 57.75C268.125 60.2727 267.602 63.2955 267.602 66.8182C267.602 70.3864 268.125 73.4545 269.17 76.0227C270.216 78.5682 271.682 80.5341 273.568 81.9205C275.477 83.2841 277.716 83.9659 280.284 83.9659C282.102 83.9659 283.727 83.625 285.159 82.9432C286.614 82.2386 287.829 81.2273 288.807 79.9091C289.784 78.5909 290.454 76.9886 290.818 75.1023H302.614C302.318 78.8068 301.227 82.0909 299.341 84.9545C297.454 87.7955 294.886 90.0227 291.636 91.6364C288.386 93.2273 284.568 94.0227 280.182 94.0227ZM342.282 70.9773V40.6364H354.623V93H342.657V83.6932H342.112C340.93 86.625 338.987 89.0227 336.282 90.8864C333.6 92.75 330.293 93.6818 326.362 93.6818C322.93 93.6818 319.896 92.9205 317.259 91.3977C314.646 89.8523 312.6 87.6136 311.123 84.6818C309.646 81.7273 308.907 78.1591 308.907 73.9773V40.6364H321.248V72.0682C321.248 75.3864 322.157 78.0227 323.975 79.9773C325.793 81.9318 328.18 82.9091 331.134 82.9091C332.953 82.9091 334.714 82.4659 336.418 81.5795C338.123 80.6932 339.521 79.375 340.612 77.625C341.725 75.8523 342.282 73.6364 342.282 70.9773ZM375.814 23.1818V93H363.473V23.1818H375.814ZM399.733 94.0568C396.415 94.0568 393.426 93.4659 390.767 92.2841C388.13 91.0795 386.04 89.3068 384.494 86.9659C382.971 84.625 382.21 81.7386 382.21 78.3068C382.21 75.3523 382.755 72.9091 383.846 70.9773C384.937 69.0455 386.426 67.5 388.312 66.3409C390.199 65.1818 392.324 64.3068 394.687 63.7159C397.074 63.1023 399.54 62.6591 402.085 62.3864C405.153 62.0682 407.642 61.7841 409.551 61.5341C411.46 61.2614 412.846 60.8523 413.71 60.3068C414.596 59.7386 415.04 58.8636 415.04 57.6818V57.4773C415.04 54.9091 414.278 52.9205 412.755 51.5114C411.233 50.1023 409.04 49.3977 406.176 49.3977C403.153 49.3977 400.755 50.0568 398.983 51.375C397.233 52.6932 396.051 54.25 395.437 56.0455L383.915 54.4091C384.824 51.2273 386.324 48.5682 388.415 46.4318C390.505 44.2727 393.062 42.6591 396.085 41.5909C399.108 40.5 402.449 39.9545 406.108 39.9545C408.63 39.9545 411.142 40.25 413.642 40.8409C416.142 41.4318 418.426 42.4091 420.494 43.7727C422.562 45.1136 424.221 46.9432 425.471 49.2614C426.744 51.5795 427.38 54.4773 427.38 57.9545V93H415.517V85.8068H415.108C414.358 87.2614 413.301 88.625 411.937 89.8977C410.596 91.1477 408.903 92.1591 406.858 92.9318C404.835 93.6818 402.46 94.0568 399.733 94.0568ZM402.937 84.9886C405.415 84.9886 407.562 84.5 409.38 83.5227C411.199 82.5227 412.596 81.2045 413.574 79.5682C414.574 77.9318 415.074 76.1477 415.074 74.2159V68.0455C414.687 68.3636 414.028 68.6591 413.096 68.9318C412.187 69.2045 411.165 69.4432 410.028 69.6477C408.892 69.8523 407.767 70.0341 406.653 70.1932C405.54 70.3523 404.574 70.4886 403.755 70.6023C401.915 70.8523 400.267 71.2614 398.812 71.8295C397.358 72.3977 396.21 73.1932 395.369 74.2159C394.528 75.2159 394.108 76.5114 394.108 78.1023C394.108 80.375 394.937 82.0909 396.596 83.25C398.255 84.4091 400.369 84.9886 402.937 84.9886ZM462.097 40.6364V50.1818H431.995V40.6364H462.097ZM439.427 28.0909H451.768V77.25C451.768 78.9091 452.018 80.1818 452.518 81.0682C453.04 81.9318 453.722 82.5227 454.563 82.8409C455.404 83.1591 456.336 83.3182 457.359 83.3182C458.131 83.3182 458.836 83.2614 459.472 83.1477C460.131 83.0341 460.631 82.9318 460.972 82.8409L463.052 92.4886C462.393 92.7159 461.45 92.9659 460.222 93.2386C459.018 93.5114 457.54 93.6705 455.79 93.7159C452.7 93.8068 449.915 93.3409 447.438 92.3182C444.961 91.2727 442.995 89.6591 441.54 87.4773C440.109 85.2955 439.404 82.5682 439.427 79.2955V28.0909ZM491.198 94.0227C485.948 94.0227 481.414 92.9318 477.595 90.75C473.8 88.5455 470.879 85.4318 468.834 81.4091C466.789 77.3636 465.766 72.6023 465.766 67.125C465.766 61.7386 466.789 57.0114 468.834 52.9432C470.902 48.8523 473.789 45.6705 477.493 43.3977C481.198 41.1023 485.55 39.9545 490.55 39.9545C493.777 39.9545 496.823 40.4773 499.686 41.5227C502.573 42.5455 505.118 44.1364 507.323 46.2955C509.55 48.4545 511.3 51.2045 512.573 54.5455C513.845 57.8636 514.482 61.8182 514.482 66.4091V70.1932H471.561V61.875H502.652C502.629 59.5114 502.118 57.4091 501.118 55.5682C500.118 53.7045 498.72 52.2386 496.925 51.1705C495.152 50.1023 493.084 49.5682 490.72 49.5682C488.198 49.5682 485.982 50.1818 484.073 51.4091C482.164 52.6136 480.675 54.2045 479.607 56.1818C478.561 58.1364 478.027 60.2841 478.004 62.625V69.8864C478.004 72.9318 478.561 75.5455 479.675 77.7273C480.789 79.8864 482.345 81.5455 484.345 82.7045C486.345 83.8409 488.686 84.4091 491.368 84.4091C493.164 84.4091 494.789 84.1591 496.243 83.6591C497.698 83.1364 498.959 82.375 500.027 81.375C501.095 80.375 501.902 79.1364 502.448 77.6591L513.97 78.9545C513.243 82 511.857 84.6591 509.811 86.9318C507.789 89.1818 505.198 90.9318 502.039 92.1818C498.879 93.4091 495.266 94.0227 491.198 94.0227Z" fill="#1E1E1E"/>
</svg>
